<?xml version="1.0" encoding="UTF-8" standalone="no" ?>
<!DOCTYPE svg PUBLIC "-//W3C//DTD SVG 1.1//EN" "http://www.w3.org/Graphics/SVG/1.1/DTD/svg11.dtd">
<svg xmlns="http://www.w3.org/2000/svg" xmlns:xlink="http://www.w3.org/1999/xlink" version="1.1" width="100" height="100" viewBox="0 0 640 640" xml:space="preserve">
<desc>Created with Fabric.js 4.6.0</desc>
<defs>
</defs>
<g transform="matrix(4.82 0 0 4.81 444.87 195.13)" id="G0AZiexe5c6Zy4oL0IflG"  >
<g style="" vector-effect="non-scaling-stroke"   >
		<g transform="matrix(1 0 0 1 0 0)" id="5slPsA_rpvgsZH2AiNa7m"  >
<path style="stroke: none; stroke-width: 1; stroke-dasharray: none; stroke-linecap: butt; stroke-dashoffset: 0; stroke-linejoin: miter; stroke-miterlimit: 4; fill: rgb(179,181,179); fill-rule: nonzero; opacity: 1;" vector-effect="non-scaling-stroke"  transform=" translate(-39.96, -40)" d="M 74.2 31.8 L 67.5 31.8 C 66.2 31.8 65.1 31.1 64.6 29.8 C 64.1 28.5 64.3 27.3 65.3 26.3 L 70.1 21.5 C 72.39999999999999 19.2 72.39999999999999 15.4 70.1 13.1 L 67 10 C 65.9 8.9 64.4 8.3 62.8 8.3 C 61.19999999999999 8.3 59.699999999999996 8.9 58.599999999999994 10 L 53.8 14.8 C 52.9 15.700000000000001 51.599999999999994 16 50.3 15.5 C 49.099999999999994 15 48.3 13.9 48.3 12.6 L 48.3 5.9 C 48.3 2.6000000000000005 45.599999999999994 0 42.4 0 L 37.9 0 C 34.6 0 32 2.7 32 5.9 L 32 12.600000000000001 C 32 13.900000000000002 31.3 15.000000000000002 30 15.500000000000002 C 28.8 16 27.5 15.800000000000002 26.5 14.800000000000002 L 21.6 10 C 20.5 8.9 19 8.3 17.400000000000002 8.3 C 15.800000000000002 8.3 14.300000000000002 8.9 13.200000000000003 10 L 10.100000000000003 13.1 C 7.800000000000003 15.399999999999999 7.800000000000003 19.2 10.100000000000003 21.5 L 14.900000000000002 26.3 C 15.800000000000002 27.2 16.1 28.5 15.600000000000001 29.8 C 15.100000000000001 31.1 14.000000000000002 31.8 12.700000000000001 31.8 L 5.9 31.8 C 2.6000000000000005 31.8 0 34.5 0 37.7 L 0 42.2 C 0 45.5 2.7 48.1 5.9 48.1 L 12.600000000000001 48.1 C 13.900000000000002 48.1 15.000000000000002 48.800000000000004 15.500000000000002 50.1 C 16 51.300000000000004 15.800000000000002 52.6 14.800000000000002 53.6 L 10 58.5 C 7.7 60.8 7.7 64.6 10 66.9 L 13.1 70 C 15.399999999999999 72.3 19.2 72.3 21.5 70 L 26.3 65.2 C 27.2 64.3 28.5 64 29.8 64.5 C 31 65 31.8 66.1 31.8 67.4 L 31.8 74.10000000000001 C 31.8 77.4 34.5 80.00000000000001 37.7 80.00000000000001 L 42.2 80.00000000000001 C 45.5 80.00000000000001 48.1 77.30000000000001 48.1 74.10000000000001 L 48.1 67.4 C 48.1 66.10000000000001 48.800000000000004 65 50.1 64.5 C 51.300000000000004 64 52.6 64.2 53.6 65.2 L 58.4 70 C 60.699999999999996 72.3 64.5 72.3 66.8 70 L 69.89999999999999 66.9 C 72.19999999999999 64.60000000000001 72.19999999999999 60.800000000000004 69.89999999999999 58.50000000000001 L 65.1 53.70000000000001 C 64.19999999999999 52.80000000000001 63.89999999999999 51.50000000000001 64.39999999999999 50.20000000000001 C 64.89999999999999 49.00000000000001 65.99999999999999 48.20000000000001 67.3 48.20000000000001 L 74 48.20000000000001 C 77.3 48.20000000000001 79.9 45.50000000000001 79.9 42.30000000000001 L 79.9 37.80000000000001 C 80.1 34.5 77.4 31.8 74.2 31.8 z" stroke-linecap="round" />
</g>
		<g transform="matrix(1 0 0 1 0.04 0)" id="WuimOUPt5_-Ggcx00Ekzz"  >
<path style="stroke: none; stroke-width: 1; stroke-dasharray: none; stroke-linecap: butt; stroke-dashoffset: 0; stroke-linejoin: miter; stroke-miterlimit: 4; fill: rgb(255,255,255); fill-rule: nonzero; opacity: 1;" vector-effect="non-scaling-stroke"  transform=" translate(-40, -40)" d="M 40 20.6 C 29.3 20.6 20.6 29.3 20.6 40 C 20.6 50.7 29.3 59.4 40 59.4 C 50.7 59.4 59.4 50.7 59.4 40 C 59.4 29.299999999999997 50.7 20.6 40 20.6 z" stroke-linecap="round" />
</g>
		<g transform="matrix(1 0 0 1 0.04 0)" id="oWXBqgQO83_5gHgA7RLQ6"  >
<path style="stroke: none; stroke-width: 1; stroke-dasharray: none; stroke-linecap: butt; stroke-dashoffset: 0; stroke-linejoin: miter; stroke-miterlimit: 4; fill: rgb(179,181,179); fill-rule: nonzero; opacity: 1;" vector-effect="non-scaling-stroke"  transform=" translate(-40, -40)" d="M 55.6 40 C 55.6 48.6 48.6 55.6 40 55.6 C 31.4 55.6 24.4 48.6 24.4 40 C 24.4 31.4 31.4 24.4 40 24.4 C 48.6 24.4 55.6 31.4 55.6 40 z" stroke-linecap="round" />
</g>
</g>
</g>
<g transform="matrix(4.58 1.49 -1.43 4.39 191.95 459.94)" id="3EjpnSkB1_Y4g8HS8JAX8"  >
<g style="" vector-effect="non-scaling-stroke"   >
		<g transform="matrix(1 0 0 1 0 0)" id="9OJWgWtozG36Gf_3c7dqg"  >
<path style="stroke: none; stroke-width: 1; stroke-dasharray: none; stroke-linecap: butt; stroke-dashoffset: 0; stroke-linejoin: miter; stroke-miterlimit: 4; fill: rgb(179,181,179); fill-rule: nonzero; opacity: 1;" vector-effect="non-scaling-stroke"  transform=" translate(-39.96, -40)" d="M 74.2 31.8 L 67.5 31.8 C 66.2 31.8 65.1 31.1 64.6 29.8 C 64.1 28.5 64.3 27.3 65.3 26.3 L 70.1 21.5 C 72.39999999999999 19.2 72.39999999999999 15.4 70.1 13.1 L 67 10 C 65.9 8.9 64.4 8.3 62.8 8.3 C 61.19999999999999 8.3 59.699999999999996 8.9 58.599999999999994 10 L 53.8 14.8 C 52.9 15.700000000000001 51.599999999999994 16 50.3 15.5 C 49.099999999999994 15 48.3 13.9 48.3 12.6 L 48.3 5.9 C 48.3 2.6000000000000005 45.599999999999994 0 42.4 0 L 37.9 0 C 34.6 0 32 2.7 32 5.9 L 32 12.600000000000001 C 32 13.900000000000002 31.3 15.000000000000002 30 15.500000000000002 C 28.8 16 27.5 15.800000000000002 26.5 14.800000000000002 L 21.6 10 C 20.5 8.9 19 8.3 17.400000000000002 8.3 C 15.800000000000002 8.3 14.300000000000002 8.9 13.200000000000003 10 L 10.100000000000003 13.1 C 7.800000000000003 15.399999999999999 7.800000000000003 19.2 10.100000000000003 21.5 L 14.900000000000002 26.3 C 15.800000000000002 27.2 16.1 28.5 15.600000000000001 29.8 C 15.100000000000001 31.1 14.000000000000002 31.8 12.700000000000001 31.8 L 5.9 31.8 C 2.6000000000000005 31.8 0 34.5 0 37.7 L 0 42.2 C 0 45.5 2.7 48.1 5.9 48.1 L 12.600000000000001 48.1 C 13.900000000000002 48.1 15.000000000000002 48.800000000000004 15.500000000000002 50.1 C 16 51.300000000000004 15.800000000000002 52.6 14.800000000000002 53.6 L 10 58.5 C 7.7 60.8 7.7 64.6 10 66.9 L 13.1 70 C 15.399999999999999 72.3 19.2 72.3 21.5 70 L 26.3 65.2 C 27.2 64.3 28.5 64 29.8 64.5 C 31 65 31.8 66.1 31.8 67.4 L 31.8 74.10000000000001 C 31.8 77.4 34.5 80.00000000000001 37.7 80.00000000000001 L 42.2 80.00000000000001 C 45.5 80.00000000000001 48.1 77.30000000000001 48.1 74.10000000000001 L 48.1 67.4 C 48.1 66.10000000000001 48.800000000000004 65 50.1 64.5 C 51.300000000000004 64 52.6 64.2 53.6 65.2 L 58.4 70 C 60.699999999999996 72.3 64.5 72.3 66.8 70 L 69.89999999999999 66.9 C 72.19999999999999 64.60000000000001 72.19999999999999 60.800000000000004 69.89999999999999 58.50000000000001 L 65.1 53.70000000000001 C 64.19999999999999 52.80000000000001 63.89999999999999 51.50000000000001 64.39999999999999 50.20000000000001 C 64.89999999999999 49.00000000000001 65.99999999999999 48.20000000000001 67.3 48.20000000000001 L 74 48.20000000000001 C 77.3 48.20000000000001 79.9 45.50000000000001 79.9 42.30000000000001 L 79.9 37.80000000000001 C 80.1 34.5 77.4 31.8 74.2 31.8 z" stroke-linecap="round" />
</g>
		<g transform="matrix(1 0 0 1 0.04 0)" id="rhRDndwEMO0IIvHGPK5T9"  >
<path style="stroke: none; stroke-width: 1; stroke-dasharray: none; stroke-linecap: butt; stroke-dashoffset: 0; stroke-linejoin: miter; stroke-miterlimit: 4; fill: rgb(255,255,255); fill-rule: nonzero; opacity: 1;" vector-effect="non-scaling-stroke"  transform=" translate(-40, -40)" d="M 40 20.6 C 29.3 20.6 20.6 29.3 20.6 40 C 20.6 50.7 29.3 59.4 40 59.4 C 50.7 59.4 59.4 50.7 59.4 40 C 59.4 29.299999999999997 50.7 20.6 40 20.6 z" stroke-linecap="round" />
</g>
		<g transform="matrix(1 0 0 1 0.04 0)" id="1IG-TQpb-JjdHQtQepCp4"  >
<path style="stroke: none; stroke-width: 1; stroke-dasharray: none; stroke-linecap: butt; stroke-dashoffset: 0; stroke-linejoin: miter; stroke-miterlimit: 4; fill: rgb(179,181,179); fill-rule: nonzero; opacity: 1;" vector-effect="non-scaling-stroke"  transform=" translate(-40, -40)" d="M 55.6 40 C 55.6 48.6 48.6 55.6 40 55.6 C 31.4 55.6 24.4 48.6 24.4 40 C 24.4 31.4 31.4 24.4 40 24.4 C 48.6 24.4 55.6 31.4 55.6 40 z" stroke-linecap="round" />
</g>
</g>
</g>
</svg>